<?xml version="1.0" encoding="UTF-8"?>
<svg width="128" height="128" version="1.1" viewBox="0 0 128 128" xmlns="http://www.w3.org/2000/svg" xmlns:xlink="http://www.w3.org/1999/xlink">
 <defs>
  <linearGradient id="c" x1="672.58" x2="1106.7" y1="1195.6" y2="1292.7" gradientTransform="matrix(.24396 -.054626 .054626 .24396 -214.65 -161.89)" gradientUnits="userSpaceOnUse">
   <stop stop-color="#504e55" offset="0"/>
   <stop stop-color="#848387" offset=".035945"/>
   <stop stop-color="#48464d" offset=".089131"/>
   <stop stop-color="#48464d" offset=".95775"/>
   <stop stop-color="#848387" offset=".98018"/>
   <stop stop-color="#48464d" offset="1"/>
  </linearGradient>
  <filter id="j" x="-.091125" y="-.11993" width="1.1822" height="1.2399" color-interpolation-filters="sRGB">
   <feGaussianBlur stdDeviation="4.2525"/>
  </filter>
  <filter id="k" x="-.091125" y="-.11993" width="1.1822" height="1.2399" color-interpolation-filters="sRGB">
   <feGaussianBlur stdDeviation="4.2525"/>
  </filter>
  <linearGradient id="h" x1="1947.6" x2="2265.8" y1="-429.71" y2="-429.71" gradientTransform="matrix(.25 -.11112 0 .25 -453.75 435.14)" gradientUnits="userSpaceOnUse">
   <stop stop-color="#3d3846" offset="0"/>
   <stop stop-color="#6f6d76" offset=".014778"/>
   <stop stop-color="#434148" offset=".03"/>
   <stop stop-color="#434148" offset=".97"/>
   <stop stop-color="#999" offset=".98575"/>
   <stop stop-color="#3d3846" offset="1"/>
  </linearGradient>
  <linearGradient id="e" x1="88.596" x2="536.6" y1="-449.39" y2="-449.39" gradientTransform="matrix(.25 0 0 .25 -142.15 228.35)" gradientUnits="userSpaceOnUse">
   <stop stop-color="#77767b" offset="0"/>
   <stop stop-color="#bfbfbf" offset=".035945"/>
   <stop stop-color="#999" offset=".071297"/>
   <stop stop-color="#999" offset=".92857"/>
   <stop stop-color="#bfbfbf" offset=".96429"/>
   <stop stop-color="#77767b" offset="1"/>
  </linearGradient>
  <linearGradient id="d" x1="1942.1" x2="2265.8" y1="-429.71" y2="-429.71" gradientTransform="matrix(.25 0 0 .25 -462.01 223.43)" gradientUnits="userSpaceOnUse">
   <stop stop-color="#999" offset="0"/>
   <stop stop-color="#bfbfbf" offset=".014778"/>
   <stop stop-color="#999" offset=".03"/>
   <stop stop-color="#999" offset=".97"/>
   <stop stop-color="#bfbfbf" offset=".98575"/>
   <stop stop-color="#999" offset="1"/>
  </linearGradient>
  <linearGradient id="a" x1="89" x2="102" y1="128.94" y2="128.94" gradientTransform="translate(-55 -13.941)" gradientUnits="userSpaceOnUse">
   <stop stop-color="#241f31" offset="1e-4"/>
   <stop stop-color="#3d3846" offset=".23019"/>
   <stop stop-color="#5b5861" offset=".50137"/>
   <stop stop-color="#3d3846" offset=".77254"/>
   <stop stop-color="#241f31" offset=".9999"/>
  </linearGradient>
  <linearGradient id="i" x1="136" x2="149" y1="128.94" y2="128.94" gradientTransform="translate(-55 -13.941)" gradientUnits="userSpaceOnUse">
   <stop stop-color="#241f31" offset="0"/>
   <stop stop-color="#3d3846" offset=".23019"/>
   <stop stop-color="#5d5a63" offset=".50137"/>
   <stop stop-color="#3d3846" offset=".77254"/>
   <stop stop-color="#241f31" offset=".9999"/>
  </linearGradient>
  <linearGradient id="g" x1="63" x2="81" y1="128.94" y2="128.94" gradientTransform="translate(-8,-15)" gradientUnits="userSpaceOnUse">
   <stop stop-color="#241f31" offset="0"/>
   <stop stop-color="#3d3846" offset=".125"/>
   <stop stop-color="#241f31" offset=".27"/>
   <stop stop-color="#3d3846" offset=".40232"/>
   <stop stop-color="#5e5c64" offset=".5"/>
   <stop stop-color="#3d3846" offset=".60041"/>
   <stop stop-color="#241f31" offset=".73"/>
   <stop stop-color="#3d3846" offset=".875"/>
   <stop stop-color="#241f31" offset="1"/>
  </linearGradient>
  <linearGradient id="f" x1="74.401" x2="74.401" y1="193.34" y2="235.21" gradientTransform="matrix(1.0789 0 0 1.1667 -13.684 -191.17)" gradientUnits="userSpaceOnUse">
   <stop stop-color="#f5c211" offset=".26053"/>
   <stop stop-color="#f66151" offset="1"/>
  </linearGradient>
  <linearGradient id="b" x1="81.437" x2="81.437" y1="75.5" y2="86.5" gradientTransform="translate(-8 -11)" gradientUnits="userSpaceOnUse">
   <stop stop-color="#5e5c64" stop-opacity="0" offset="0"/>
   <stop stop-color="#5e5c64" offset=".5"/>
   <stop stop-color="#5e5c64" stop-opacity="0" offset="1"/>
  </linearGradient>
  <clipPath id="m">
   <rect x="51" y="64" width="25.875" height="12" rx="2" ry="2" fill="#5e5c64" style="paint-order:normal"/>
  </clipPath>
  <clipPath id="l">
   <path d="m39.027 65.088c0.86906 0.15166 1.694 0.4931 2.416 1l-0.70508 0.70508-0.63867 1.3574 0.75 0.75 1.3574-0.63867 0.70508-0.70508c0.5069 0.72203 0.84834 1.547 1 2.416h-1.0566l-1.4121 0.50781v1.0625l1.4121 0.50586h1.0527c-0.15394 0.86665-0.49668 1.6888-1.0039 2.4082l-0.69727-0.69726-1.3574-0.63867-0.75 0.75 0.63867 1.3574 0.69336 0.69336c-0.71941 0.50186-1.5401 0.83987-2.4043 0.99023v-1.0352l-0.50781-1.4102h-1.0625l-0.50586 1.4102v1.0312c-0.86193-0.15322-1.6799-0.49321-2.3965-0.99609l0.68554-0.68359 0.63867-1.3574-0.75-0.75-1.3574 0.63867-0.68359 0.68555c-0.50289-0.71659-0.84287-1.5346-0.99609-2.3965h1.0312l1.4102-0.50586v-1.0625l-1.4102-0.50781h-1.0352c0.15036-0.86418 0.48838-1.6849 0.99023-2.4043l0.69336 0.69336 1.3574 0.63867 0.75-0.75-0.63867-1.3574-0.69726-0.69727c0.71938-0.50723 1.5415-0.84997 2.4082-1.0039v1.0527l0.50586 1.4121h1.0625l0.50781-1.4121z" enable-background="new" fill="#f6f5f4" style="paint-order:normal"/>
  </clipPath>
  <clipPath id="u">
   <circle cx="38" cy="70" r="8" fill="#999" style="paint-order:normal"/>
  </clipPath>
  <clipPath id="t">
   <path d="m91.027 65.088c0.86906 0.15166 1.694 0.4931 2.416 1l-0.70508 0.70508-0.63867 1.3574 0.75 0.75 1.3574-0.63867 0.70508-0.70508c0.5069 0.72203 0.84834 1.547 1 2.416h-1.0566l-1.4121 0.50781v1.0625l1.4121 0.50586h1.0527c-0.15394 0.86666-0.49668 1.6888-1.0039 2.4082l-0.69727-0.69726-1.3574-0.63867-0.75 0.75 0.63867 1.3574 0.69336 0.69336c-0.71941 0.50186-1.5401 0.83987-2.4043 0.99023v-1.0352l-0.50781-1.4102h-1.0625l-0.50586 1.4102v1.0312c-0.86193-0.15322-1.6799-0.49321-2.3965-0.99609l0.68555-0.68359 0.63867-1.3574-0.75-0.75-1.3574 0.63867-0.68359 0.68555c-0.50289-0.71659-0.84287-1.5346-0.99609-2.3965h1.0312l1.4102-0.50586v-1.0625l-1.4102-0.50781h-1.0352c0.15036-0.86418 0.48838-1.6849 0.99023-2.4043l0.69336 0.69336 1.3574 0.63867 0.75-0.75-0.63867-1.3574-0.69726-0.69727c0.71938-0.50723 1.5415-0.84997 2.4082-1.0039v1.0527l0.50586 1.4121h1.0625l0.50781-1.4121z" enable-background="new" fill="#f6f5f4" style="paint-order:normal"/>
  </clipPath>
  <clipPath id="s">
   <circle cx="90" cy="70" r="8" fill="#999" style="paint-order:normal"/>
  </clipPath>
  <clipPath id="r">
   <path d="m45.975 95.949c-1.1187-2.2e-4 -2.0256 0.90671-2.0254 2.0254-2.15e-4 1.1187 0.90671 2.0256 2.0254 2.0254 1.1187 2.2e-4 2.0256-0.90671 2.0254-2.0254 2.15e-4 -1.1187-0.90671-2.0256-2.0254-2.0254zm36.025 0.0254c-1.1187-2.2e-4 -2.0256 0.9067-2.0254 2.0254-2.15e-4 1.1187 0.90671 2.0256 2.0254 2.0254 1.1187 2.2e-4 2.0256-0.90671 2.0254-2.0254 2.15e-4 -1.1187-0.90671-2.0256-2.0254-2.0254zm-48.025 4.3007c-1.1187-2.2e-4 -2.0256 0.9067-2.0254 2.0254-2.15e-4 1.1187 0.90671 2.0256 2.0254 2.0254 1.1187 2.2e-4 2.0256-0.90671 2.0254-2.0254 2.15e-4 -1.1187-0.90671-2.0256-2.0254-2.0254zm60.051 0.0254c-1.1187-2.2e-4 -2.0256 0.9067-2.0254 2.0254-2.15e-4 1.1187 0.90671 2.0256 2.0254 2.0254 1.1187 2.2e-4 2.0256-0.90671 2.0254-2.0254 2.2e-4 -1.1187-0.90671-2.0256-2.0254-2.0254z" enable-background="new" fill="#868589" style="paint-order:normal"/>
  </clipPath>
  <clipPath id="q">
   <path d="m31 89.99a3.8558 3.8558 0 0 0-3.7383 2.9062l-3.2012 12.611a2 2 0 0 0-0.060547 0.49219 2 2 0 0 0 2 2h76a2 2 0 0 0 2-2 2 2 0 0 0-0.0625-0.49219v-2e-3a2 2 0 0 0-2e-3 -8e-3l-3.1972-12.59a3.8578 3.8578 0 0 0-3.7383-2.9082z" enable-background="new" fill="#ddd" style="paint-order:normal"/>
  </clipPath>
  <clipPath id="p">
   <path d="m18.841 42.683 76.115-17.043c1.0779-0.24135 2.1265 0.45825 2.625 1.4407 1.3203 2.6022 3.9791 4.2881 6.8958 4.3726 1.1012 0.03191 2.1812 0.68209 2.4226 1.76l2.5586 11.426-95.632 21.414-2.5586-11.426c-0.24135-1.0779 0.45825-2.1265 1.4407-2.625 2.6022-1.3203 4.2881-3.9791 4.3726-6.8958 0.03191-1.1012 0.68209-2.1812 1.76-2.4226z" enable-background="new" fill="#ffa348" style="paint-order:normal"/>
  </clipPath>
  <clipPath id="o">
   <rect transform="rotate(-12.621)" x="-7.9407" y="38.768" width="112" height="79" rx="8" enable-background="new" fill="#898991" style="paint-order:normal"/>
  </clipPath>
  <clipPath id="n">
   <path d="m25 38h78c1.1046 0 1.975 0.91183 2.2468 1.9795 0.71979 2.8278 2.9459 5.0539 5.7737 5.7737 1.0677 0.27176 1.9795 1.1422 1.9795 2.2468v9h-98v-9c0-1.1046 0.91183-1.975 1.9795-2.2468 2.8278-0.71979 5.0539-2.9459 5.7737-5.7737 0.27176-1.0677 1.1422-1.9795 2.2468-1.9795z" enable-background="new" fill="#fff" style="paint-order:normal"/>
  </clipPath>
 </defs>
 <g>
  <g transform="translate(0 .30936)">
   <path d="m103.6 23.666c-0.53232 0.01035-1.0707 0.07426-1.6113 0.19531l-93.251 21.911 5.5e-6 -0.16601h-6.4668l3e-7 7.998c-5.48e-5 0.58274 0.062422 1.176 0.19531 1.7695l13.766 61.471c0.96842 4.3249 5.2298 7.027 9.5547 6.0586l93.682-20.977c3.7317-0.83558 6.2539-4.1229 6.2539-7.7871v-7.9941h-1.5898l-12.59-56.227c-0.84736-3.7843-4.2171-6.3263-7.9434-6.2539z" enable-background="new" fill="url(#c)" style="paint-order:normal"/>
   <g clip-path="url(#o)">
    <rect transform="rotate(-12.621 -2019.1 332.86)" x="16" y="488" width="112" height="79" rx="8" enable-background="new" fill="#898991" style="paint-order:normal"/>
    <g>
     <g fill="#6a686f">
      <path d="m120.65 85.463c0.36204 1.6168-0.65517 3.221-2.272 3.583-1.6168 0.36203-3.221-0.65517-3.583-2.272s0.65517-3.221 2.272-3.583c1.6168-0.36203 3.221 0.65517 3.583 2.272z"/>
      <path d="m106.88 23.993c0.36203 1.6168-0.65517 3.221-2.272 3.583-1.6168 0.36203-3.221-0.65518-3.583-2.272-0.36203-1.6168 0.65517-3.221 2.272-3.583 1.6168-0.36203 3.221 0.65518 3.583 2.272z"/>
      <path d="m13.204 44.97c0.36203 1.6168-0.65518 3.221-2.272 3.583-1.6168 0.36203-3.221-0.65518-3.583-2.272-0.36203-1.6168 0.65518-3.221 2.272-3.583s3.221 0.65518 3.583 2.272z"/>
     </g>
     <g fill="#898991">
      <path d="m118.7 85.901c0.12065 0.53883-0.21834 1.0734-0.75717 1.1941-0.53882 0.12065-1.0734-0.21834-1.1941-0.75716-0.12065-0.53883 0.21834-1.0734 0.75717-1.1941s1.0734 0.21834 1.1941 0.75716z"/>
      <path d="m104.93 24.43c0.12065 0.53882-0.21834 1.0734-0.75716 1.1941-0.53883 0.12065-1.0734-0.21834-1.1941-0.75716-0.12065-0.53882 0.21834-1.0734 0.75717-1.1941s1.0734 0.21835 1.1941 0.75717z"/>
      <path d="m11.253 45.407c0.12065 0.53882-0.21834 1.0734-0.75717 1.1941-0.53882 0.12065-1.0734-0.21834-1.1941-0.75717-0.12065-0.53882 0.21834-1.0734 0.75717-1.1941 0.53882-0.12065 1.0734 0.21834 1.1941 0.75717z"/>
     </g>
    </g>
    <path d="m16 30.691h96c4.432 0 8 3.568 8 8v69.101c0 4.432-3.568 8-8 8h-96c-4.432 0-8-3.568-8-8v-69.101c0-4.432 3.568-8 8-8z" enable-background="new" fill="#5e5c64" filter="url(#j)" opacity=".8" stroke-width=".25" style="mix-blend-mode:multiply"/>
    <g clip-path="url(#p)">
     <path d="m18.841 42.683 76.115-17.043c1.0779-0.24135 2.1265 0.45825 2.625 1.4407 1.3203 2.6022 3.9791 4.2881 6.8958 4.3726 1.1012 0.03191 2.1812 0.68209 2.4226 1.76l2.5586 11.426-95.632 21.414-2.5586-11.426c-0.24135-1.0779 0.45825-2.1265 1.4407-2.625 2.6022-1.3203 4.2881-3.9791 4.3726-6.8958 0.03191-1.1012 0.68209-2.1812 1.76-2.4226z" enable-background="new" fill="#ffa348" style="paint-order:normal"/>
     <path d="m16 30.691h96c4.432 0 8 3.568 8 8v69.101c0 4.432-3.568 8-8 8h-96c-4.432 0-8-3.568-8-8v-69.101c0-4.432 3.568-8 8-8z" enable-background="new" fill="#a94f6e" filter="url(#k)" opacity=".8" stroke-width=".25" style="mix-blend-mode:multiply"/>
    </g>
   </g>
   <path d="m33.552 110.91v9.8787a1.6178 1.6178 38.97 0 0 1.9559 1.5821l76.088-16.257a2.4725 2.4725 128.97 0 0 1.9558-2.4179v-10.639z" enable-background="new" fill="url(#h)" style="paint-order:normal"/>
   <path transform="matrix(.97638 -.21608 0 1 0 0)" d="m44.606 127.31h13.315v1h-13.315z" fill="#6f6d76" stroke-width=".28847"/>
  </g>
  <g>
   <rect transform="scale(-1,1)" x="-120" y="92" width="112" height="24" rx="8" enable-background="new" fill="url(#e)" style="paint-order:normal"/>
   <rect x="8" y="31" width="112" height="77" rx="8" ry="8" enable-background="new" fill="#ddd" style="paint-order:normal"/>
   <g>
    <path d="m24 105.98v10a2 2 45 0 0 2 2h76a2 2 135 0 0 2-2v-10z" fill="url(#d)" style="paint-order:normal"/>
    <g>
     <g>
      <path d="m34 115v1h13v-1zm47 0v1h13v-1zm-26 1v1h18v-1z" fill="#deddda" style="paint-order:normal"/>
      <rect x="34" y="110" width="13" height="5" enable-background="new" fill="url(#a)" style="paint-order:normal"/>
      <rect x="81" y="110" width="13" height="5" enable-background="new" fill="url(#i)" style="paint-order:normal"/>
      <rect x="55" y="109" width="18" height="7" fill="#5e5c64" style="paint-order:normal"/>
     </g>
     <path d="m55 110c3 0 6 2.875 9 2.875s6-2.875 9-2.875v5c-3 0-6 2.875-9 2.875s-6-2.875-9-2.875v-5z" enable-background="new" fill="url(#g)" stroke-width=".28504"/>
    </g>
    <g clip-path="url(#q)">
     <path d="m31 89.99a3.8558 3.8558 0 0 0-3.7383 2.9062l-3.2012 12.611a2 2 0 0 0-0.060547 0.49219 2 2 0 0 0 2 2h76a2 2 0 0 0 2-2 2 2 0 0 0-0.0625-0.49219v-2e-3a2 2 0 0 0-2e-3 -8e-3l-3.1972-12.59a3.8578 3.8578 0 0 0-3.7383-2.9082z" fill="#ddd" style="paint-order:normal"/>
     <path d="m105.06 110-4.3217-17.092c-0.43256-1.7107-1.9737-2.9078-3.7383-2.9082l-66-0.01c-1.7642-5.5e-4 -3.3038 1.1964-3.7383 2.9062l-4.3802 17.104" enable-background="new" fill="none" stroke="#fff" stroke-width="3" style="paint-order:normal"/>
    </g>
    <g clip-path="url(#r)">
     <path d="m45.975 95.949c-1.1187-2.2e-4 -2.0256 0.90671-2.0254 2.0254-2.15e-4 1.1187 0.90671 2.0256 2.0254 2.0254 1.1187 2.2e-4 2.0256-0.90671 2.0254-2.0254 2.15e-4 -1.1187-0.90671-2.0256-2.0254-2.0254zm36.025 0.0254c-1.1187-2.2e-4 -2.0256 0.9067-2.0254 2.0254-2.15e-4 1.1187 0.90671 2.0256 2.0254 2.0254 1.1187 2.2e-4 2.0256-0.90671 2.0254-2.0254 2.15e-4 -1.1187-0.90671-2.0256-2.0254-2.0254zm-48 4.0254c-1.1187-2.2e-4 -2.0256 0.9067-2.0254 2.0254-2.15e-4 1.1187 0.90671 2.0256 2.0254 2.0254 1.1187 2.2e-4 2.0256-0.90671 2.0254-2.0254 2.15e-4 -1.1187-0.90671-2.0256-2.0254-2.0254zm60 1e-5c-1.1187-2.2e-4 -2.0256 0.9067-2.0254 2.0254-2.15e-4 1.1187 0.90671 2.0256 2.0254 2.0254 1.1187 2.2e-4 2.0256-0.90671 2.0254-2.0254 2.2e-4 -1.1187-0.90671-2.0256-2.0254-2.0254z" fill="#999" style="paint-order:normal"/>
     <path d="m45.975 97c-1.1187-2.2e-4 -2.0256 0.90671-2.0254 2.0254-2.15e-4 1.1187 0.90671 2.0256 2.0254 2.0254 1.1187 2.2e-4 2.0256-0.90671 2.0254-2.0254 2.15e-4 -1.1187-0.90671-2.0256-2.0254-2.0254zm35.975 0.0254c-1.1187-2.2e-4 -2.0256 0.90671-2.0254 2.0254-2.15e-4 1.1187 0.90671 2.0256 2.0254 2.0254 1.1187 2.2e-4 2.0256-0.90671 2.0254-2.0254 2.15e-4 -1.1187-0.90671-2.0256-2.0254-2.0254zm-47.949 4.0254c-1.1187-2.2e-4 -2.0256 0.90671-2.0254 2.0254-2.15e-4 1.1187 0.90671 2.0256 2.0254 2.0254 1.1187 2.2e-4 2.0256-0.90671 2.0254-2.0254 2.15e-4 -1.1187-0.90671-2.0256-2.0254-2.0254zm59.949 1e-5c-1.1187-2.2e-4 -2.0256 0.90671-2.0254 2.0254-2.15e-4 1.1187 0.90671 2.0256 2.0254 2.0254 1.1187 2.2e-4 2.0256-0.90671 2.0254-2.0254 2.2e-4 -1.1187-0.90671-2.0256-2.0254-2.0254z" enable-background="new" fill="#5e5c64" style="paint-order:normal"/>
    </g>
    <g>
     <path d="m113 57-22-0.0016v26.002l19 0.0014a2.9998 2.9998 0 0 0 3-2.9998z" fill="#813d9c" style="paint-order:normal"/>
     <path d="m15 57 22-0.0016v26.002l-19 0.0014a2.9998 2.9998 0 0 1-3-2.9998z" enable-background="new" fill="#813d9c" style="paint-order:normal"/>
     <rect x="15" y="70" width="98" height="6" enable-background="new" fill="#f14a46" style="paint-order:normal"/>
     <rect x="15" y="63.919" width="98" height="6.0806" enable-background="new" fill="#ff7800" style="paint-order:normal"/>
    </g>
    <rect x="23" y="56.999" width="81.842" height="26.001" rx="13" ry="12.953" enable-background="new" fill="url(#f)" style="paint-order:normal"/>
    <g clip-path="url(#u)">
     <circle cx="38" cy="70" r="8" fill="#5e5c64" style="paint-order:normal"/>
     <path d="m38 63c-4.4183-1e-6 -8 3.5817-8 8-1e-6 4.4183 3.5817 8 8 8 4.4183 1e-6 8-3.5817 8-8 1e-6 -4.4183-3.5817-8-8-8z" enable-background="new" fill="#f5f5f5" style="paint-order:normal"/>
     <g clip-path="url(#l)">
      <circle cx="38" cy="74" r="8" enable-background="new" fill="#4c4954" style="paint-order:normal"/>
      <path d="m38 65c-4.4183-1e-6 -8 3.5817-8 8-1e-6 4.4183 3.5817 8 8 8 4.4183 1e-6 8-3.5817 8-8 1e-6 -4.4183-3.5817-8-8-8zm1.0273 1.4494c0.86906 0.15166 1.694 0.4931 2.416 1l-0.70508 0.70508-0.63867 1.3574 0.75 0.75 1.3574-0.63867 0.70508-0.70508c0.5069 0.72203 0.84834 1.547 1 2.416h-1.0566l-1.4121 0.50781v1.0625l1.4121 0.50586h1.0527c-0.15394 0.86665-0.49668 1.6888-1.0039 2.4082l-0.69727-0.69726-1.3574-0.63867-0.75 0.75 0.63867 1.3574 0.69336 0.69336c-0.71941 0.50186-1.5401 0.83987-2.4043 0.99023v-1.0352l-0.50781-1.4102h-1.0625l-0.50586 1.4102v1.0312c-0.86193-0.15322-1.6799-0.49321-2.3965-0.99609l0.68554-0.68359 0.63867-1.3574-0.75-0.75-1.3574 0.63867-0.68359 0.68554c-0.50289-0.71659-0.84287-1.5347-0.9961-2.3967l1.0313 1.84e-4 1.4102-0.50586v-1.0625l-1.4102-0.50781-1.0352 0.40325c0.15036-0.86418 0.48838-2.0881 0.99023-2.8075l0.69336 0.69336 1.3574 0.63867 0.75-0.75-0.63867-1.3574-0.69726-0.69726c0.71938-0.50723 1.5415-0.84997 2.4082-1.0039v1.0527l0.50586 1.4121h1.0625l0.50781-1.4121z" enable-background="new" fill="#bdbcbf" style="paint-order:normal"/>
      <path d="m36.951 66.145v1.3613l0.50586 1.4121h1.0625l0.50781-1.4121v-1.3613l-0.50781 1.4121h-1.0625zm5.9609 1.4121-0.70508 0.70508-1.3574 0.63867-0.75-0.75v1.3613l0.75 0.75 1.3574-0.63867 0.70508-0.70508zm-9.834 0.01172v1.3613l0.69336 0.69336 1.3574 0.63867 0.75-0.75v-1.3613l-0.75 0.75-1.3574-0.63867zm1.4551 3.9746-1.4102 0.50586h-1.0312v1.3613h1.0312l1.4102-0.50586zm6.9102 0v1.3613l1.4121 0.50586h1.0527v-1.3613h-1.0527zm-5.5645 2.3281-0.63867 1.3574-0.68555 0.68359v1.3613l0.68555-0.68359 0.63867-1.3574zm4.2207 0v1.3613l0.63867 1.3574 0.69336 0.69336v-1.3613l-0.69336-0.69336z" fill="#bdbcbf"/>
     </g>
    </g>
    <g clip-path="url(#s)">
     <circle cx="90" cy="70" r="8" fill="#5e5c64" style="paint-order:normal"/>
     <path d="m90 63c-4.4183-1e-6 -8 3.5817-8 8-1e-6 4.4183 3.5817 8 8 8 4.4183 1e-6 8-3.5817 8-8 1e-6 -4.4183-3.5817-8-8-8z" enable-background="new" fill="#f5f5f5" style="paint-order:normal"/>
     <g clip-path="url(#t)">
      <circle cx="90" cy="74" r="8" enable-background="new" fill="#4c4954" style="paint-order:normal"/>
      <path d="m90 65c-4.4183-1e-6 -8 3.5817-8 8-1e-6 4.4183 3.5817 8 8 8 4.4183 1e-6 8-3.5817 8-8 1e-6 -4.4183-3.5817-8-8-8zm1.0273 1.4494c0.86906 0.15166 1.694 0.4931 2.416 1l-0.70508 0.70508-0.63867 1.3574 0.75 0.75 1.3574-0.63867 0.70508-0.70508c0.5069 0.72203 0.84834 1.547 1 2.416h-1.0566l-1.4121 0.50781v1.0625l1.4121 0.50586h1.0527c-0.15394 0.86665-0.49668 1.6888-1.0039 2.4082l-0.69727-0.69726-1.3574-0.63867-0.75 0.75 0.63867 1.3574 0.69336 0.69336c-0.71941 0.50186-1.5401 0.83987-2.4043 0.99023v-1.0352l-0.50781-1.4102h-1.0625l-0.50586 1.4102v1.0312c-0.86193-0.15322-1.6799-0.49321-2.3965-0.99609l0.68555-0.68359 0.63867-1.3574-0.75-0.75-1.3574 0.63867-0.68359 0.68555c-0.50289-0.71659-0.84288-1.5348-0.99611-2.3967l1.0313 2.13e-4 1.4102-0.50586v-1.0625l-1.4102-0.50781-1.0352 0.40325c0.15036-0.86418 0.48838-2.0881 0.99023-2.8075l0.69336 0.69336 1.3574 0.63867 0.75-0.75-0.63867-1.3574-0.69726-0.69727c0.71938-0.50723 1.5415-0.84997 2.4082-1.0039v1.0527l0.50586 1.4121h1.0625l0.50781-1.4121z" enable-background="new" fill="#bdbcbf" style="paint-order:normal"/>
      <path d="m88.951 66.145v1.3613l0.50586 1.4121h1.0625l0.50781-1.4121v-1.3613l-0.50781 1.4121h-1.0625zm5.9609 1.4121-0.70508 0.70508-1.3574 0.63867-0.75-0.75v1.3613l0.75 0.75 1.3574-0.63867 0.70508-0.70508zm-9.834 0.01172v1.3613l0.69336 0.69336 1.3574 0.63867 0.75-0.75v-1.3613l-0.75 0.75-1.3574-0.63867zm1.4551 3.9746-1.4102 0.50586h-1.0312v1.3613h1.0312l1.4102-0.50586zm6.9102 0v1.3613l1.4121 0.50586h1.0527v-1.3613h-1.0527zm-5.5645 2.3281-0.63867 1.3574-0.68555 0.68359v1.3613l0.68555-0.68359 0.63867-1.3574zm4.2207 0v1.3613l0.63867 1.3574 0.69336 0.69336v-1.3613l-0.69336-0.69336z" fill="#bdbcbf"/>
     </g>
    </g>
    <g clip-path="url(#m)">
     <g>
      <rect x="51" y="64" width="25.875" height="12" rx="2" ry="2" fill="#4c4954" style="paint-order:normal"/>
      <ellipse cx="38" cy="71" rx="23.79" ry="23.79" enable-background="new" fill="#241f31" style="paint-order:normal"/>
      <ellipse cx="90" cy="71" rx="19.086" ry="19.086" enable-background="new" fill="#241f31" style="paint-order:normal"/>
      <path d="m53 62c-1.108 0-2 0.892-2 2v3c0-1.108 0.892-2 2-2h21.875c1.108 0 2 0.892 2 2v-3c0-1.108-0.892-2-2-2z" enable-background="new" fill="#5e5c64" style="paint-order:normal"/>
     </g>
     <path d="m38 48.379c-12.481 0-22.621 10.14-22.621 22.621 1e-6 12.481 10.14 22.621 22.621 22.621s22.621-10.14 22.621-22.621c0-12.481-10.14-22.621-22.621-22.621zm0 2c11.401 0 20.621 9.2205 20.621 20.621-1e-6 11.401-9.2205 20.621-20.621 20.621s-20.621-9.2205-20.621-20.621c0-11.401 9.2205-20.621 20.621-20.621zm0 1.2129c-10.707 0-19.408 8.7007-19.408 19.408-2e-6 10.708 8.7007 19.41 19.408 19.41s19.408-8.7027 19.408-19.41c0-10.708-8.7007-19.408-19.408-19.408zm52 1.5117c-9.8727 0-17.898 8.0238-17.898 17.896s8.0258 17.898 17.898 17.898c9.8727 1e-6 17.896-8.0258 17.896-17.898 0-9.8727-8.0238-17.896-17.896-17.896zm-52 0.48828c9.6266 0 17.408 7.7816 17.408 17.408 2e-6 9.6266-7.7816 17.41-17.408 17.41s-17.408-7.7835-17.408-17.41c0-9.6266 7.7816-17.408 17.408-17.408zm0 1.2227c-8.9273 0-16.186 7.2583-16.186 16.186s7.2583 16.186 16.186 16.186 16.186-7.2583 16.186-16.186-7.2583-16.186-16.186-16.186zm52 0.28906c8.7918 0 15.896 7.1047 15.896 15.896 1e-5 8.7918-7.1047 15.898-15.896 15.898-8.7918 1e-6 -15.898-7.1066-15.898-15.898 0-8.7918 7.1066-15.896 15.898-15.896zm0 1.1172c-8.1506 0-14.779 6.6287-14.779 14.779s6.6287 14.779 14.779 14.779c8.1506-1e-6 14.779-6.6287 14.779-14.779s-6.6287-14.779-14.779-14.779zm-52 0.59375c7.8464 0 14.186 6.3391 14.186 14.186s-6.3392 14.186-14.186 14.186-14.186-6.3391-14.186-14.186 6.3392-14.186 14.186-14.186zm52 1.4062c7.0697 1e-6 12.779 5.7096 12.779 12.779s-5.7096 12.779-12.779 12.779c-7.0697 0-12.779-5.7096-12.779-12.779s5.7096-12.779 12.779-12.779z" enable-background="new" fill="url(#b)" stop-color="#000000" stroke-linecap="round" stroke-linejoin="round"/>
    </g>
    <g clip-path="url(#n)">
     <path transform="translate(-8,-16)" d="m33 54h78c1.1046 0 1.975 0.91183 2.2468 1.9795 0.71979 2.8278 2.9459 5.0539 5.7737 5.7737 1.0677 0.27176 1.9795 1.1422 1.9795 2.2468v9h-98v-9c0-1.1046 0.91183-1.975 1.9795-2.2468 2.8278-0.71979 5.0539-2.9459 5.7737-5.7737 0.27176-1.0677 1.1422-1.9795 2.2468-1.9795z" enable-background="new" fill="#fff" style="paint-order:normal"/>
     <path d="m13 45h102v-2h-102zm0 6h102v-2h-102z" enable-background="new" fill="#f6f5f4" stop-color="#000000" stroke-linecap="round"/>
    </g>
   </g>
   <path d="m16 36c-1.6569 0-3 1.3431-3 3s1.3431 3 3 3 3-1.3431 3-3-1.3431-3-3-3zm96 0c-1.6569 0-3 1.3431-3 3s1.3431 3 3 3 3-1.3431 3-3-1.3431-3-3-3zm-96 2c0.55228 0 1 0.44772 1 1s-0.44772 1-1 1-1-0.44772-1-1 0.44772-1 1-1zm96 0c0.55229 0 1 0.44772 1 1s-0.44771 1-1 1-1-0.44772-1-1 0.44771-1 1-1zm-96 59.014c-1.6569 0-3 1.3432-3 3-3e-6 1.6568 1.3431 3 3 3s3-1.3432 3-3c3e-6 -1.6568-1.3431-3-3-3zm96 0c-1.6569 0-3 1.3431-3 3 0 1.6569 1.3431 3 3 3s3-1.3431 3-3c0-1.6569-1.3431-3-3-3zm-96 2c0.55228 0 1 0.44771 1 1 1e-6 0.55229-0.44772 1-1 1s-1-0.44771-1-1c-1e-6 -0.55229 0.44772-1 1-1zm96 0c0.55229 0 1 0.44771 1 1 0 0.55229-0.44771 1-1 1s-1-0.44771-1-1c0-0.55229 0.44771-1 1-1z" fill="#868589"/>
  </g>
 </g>
</svg>
